# xmcd
#
# Track frame offsets:
#	150
#	20185
#	33596
#	49092
#	67329
#	87455
#	105856
#	108486
#	127335
#	144980
#	158437
#
# Disc length: 2260 seconds
#
# Revision: 1
# Processed by: cddbd v1.5.1PL2 Copyright (c) Steve Scherf et al.
# Submitted via: audiograbber 1.83.01
#
DISCID=9a08d20b
DTITLE=Nicole Collins - Leave it Behind
DYEAR=2004
DGENRE=R&B
TTITLE0=Let it Come
TTITLE1=Sometimes
TTITLE2=This is Goodbye
TTITLE3=Feel Like This
TTITLE4=With or Without You
TTITLE5=Come In
TTITLE6=Darkness
TTITLE7=The Edge
TTITLE8=At All
TTITLE9=Leave it Behind
TTITLE10=Jessie's Song
EXTD=
EXTT0=
EXTT1=
EXTT2=
EXTT3=
EXTT4=
EXTT5=
EXTT6=
EXTT7=
EXTT8=
EXTT9=
EXTT10=
PLAYORDER=
